<svg xmlns="http://www.w3.org/2000/svg" xmlns:se="http://svg-edit.googlecode.com" xmlns:xlink="http://www.w3.org/1999/xlink" xmlns:dc="http://purl.org/dc/elements/1.1/" xmlns:cc="http://creativecommons.org/ns#" xmlns:rdf="http://www.w3.org/1999/02/22-rdf-syntax-ns#" xmlns:inkscape="http://www.inkscape.org/namespaces/inkscape" width="370.6250215368332" height="347.62500775326" style="">                                    <title>my vector image</title>                                    <!-- Created with Vector Paint - http://www.vectorpaint.yaks.com/ https://chrome.google.com/webstore/detail/hnbpdiengicdefcjecjbnjnoifekhgdo -->                                    <rect id="backgroundrect" width="100%" height="100%" x="0" y="0" fill="#FFFFFF" stroke="none"/>                                <g class="currentLayer" style=""><title>Layer 1</title><ellipse fill="#fcebc7" fill-opacity="1" stroke="#000000" stroke-opacity="1" stroke-width="2" stroke-dasharray="none" stroke-linejoin="round" stroke-linecap="butt" stroke-dashoffset="" fill-rule="nonzero" opacity="1" id="svg_1" rx="0" ry="0" cx="46.02085876464844" cy="40.91667175292969" style="color: rgb(252, 235, 199);" class=""/><ellipse fill="#fcebc7" fill-opacity="1" stroke="#000000" stroke-opacity="1" stroke-width="4" stroke-dasharray="none" stroke-linejoin="round" stroke-linecap="butt" stroke-dashoffset="" fill-rule="nonzero" opacity="1" id="svg_2" rx="0" ry="0" cx="43.02085876464844" cy="41.91667175292969" style="color: rgb(252, 235, 199);" class=""/><path fill="#fcebc7" fill-opacity="1" stroke="#000000" stroke-opacity="1" stroke-width="6" stroke-dasharray="none" stroke-linejoin="round" stroke-linecap="butt" stroke-dashoffset="" fill-rule="nonzero" opacity="1" marker-start="" marker-mid="" marker-end="" d="M19.354188967559708,180.45834140290123 C19.354188967559708,169.75391712949332 28.024772629020106,161.0833334680329 38.72919690242804,161.0833334680329 C49.43362117583598,161.0833334680329 58.10420483729638,169.75391712949332 58.10420483729638,180.45834140290123 C58.10420483729638,191.16276567630916 49.43362117583598,199.83334933776956 38.72919690242804,199.83334933776956 C28.024772629020106,199.83334933776956 19.354188967559708,191.16276567630916 19.354188967559708,180.45834140290123 z" class="" id="svg_25"/><path fill="#fcebc7" fill-opacity="1" stroke="#000000" stroke-opacity="1" stroke-width="6" stroke-dasharray="none" stroke-linejoin="round" stroke-linecap="butt" stroke-dashoffset="" fill-rule="nonzero" opacity="1" marker-start="" marker-mid="" marker-end="" d="M316.9583149441222,170.25000934113365 C316.9583149441222,159.54558506772574 325.62889860558266,150.8750014062653 336.33332287899054,150.8750014062653 C347.0377471523984,150.8750014062653 355.7083308138589,159.54558506772574 355.7083308138589,170.25000934113365 C355.7083308138589,180.95443361454159 347.0377471523984,189.62501727600198 336.33332287899054,189.62501727600198 C325.62889860558266,189.62501727600198 316.9583149441222,180.95443361454159 316.9583149441222,170.25000934113365 z" class="" id="svg_26"/><path fill="#fcebc7" fill-opacity="1" stroke="#000000" stroke-opacity="1" stroke-width="6" stroke-dasharray="none" stroke-linejoin="round" stroke-linecap="butt" stroke-dashoffset="" fill-rule="nonzero" opacity="1" marker-start="" marker-mid="" marker-end="" d="M41.02085876464844,184.4166717529297 C41.02085876464844,102.92495904574736 107.02914605746611,36.91667175292969 188.52085876464844,36.91667175292969 C270.01257147183077,36.91667175292969 336.02085876464844,102.92495904574736 336.02085876464844,184.4166717529297 C336.02085876464844,265.908384460112 270.01257147183077,331.9166717529297 188.52085876464844,331.9166717529297 C107.02914605746611,331.9166717529297 41.02085876464844,265.908384460112 41.02085876464844,184.4166717529297 z" id="svg_3" class=""/><path fill="#ffffff" fill-opacity="1" stroke="#000000" stroke-opacity="1" stroke-width="6" stroke-dasharray="none" stroke-linejoin="round" stroke-linecap="butt" stroke-dashoffset="" fill-rule="nonzero" opacity="1" marker-start="" marker-mid="" marker-end="" d="M119.75002509355545,155.85417187213898 C119.75002509355545,137.3458845793213 134.9654947068151,122.35417187213898 153.75002509355545,122.35417187213898 C172.5345554802958,122.35417187213898 187.75002509355545,137.3458845793213 187.75002509355545,155.85417187213898 C187.75002509355545,174.36245916495665 172.5345554802958,189.35417187213898 153.75002509355545,189.35417187213898 C134.9654947068151,189.35417187213898 119.75002509355545,174.36245916495665 119.75002509355545,155.85417187213898 z" id="svg_5" class=""/><path fill="#ffffff" fill-opacity="1" stroke="#000000" stroke-opacity="1" stroke-width="6" stroke-dasharray="none" stroke-linejoin="round" stroke-linecap="butt" stroke-dashoffset="" fill-rule="nonzero" opacity="1" marker-start="" marker-mid="" marker-end="" d="M188.1875238418579,157.10417252779007 C188.1875238418579,138.5958852349724 203.40299345511755,123.60417252779007 222.1875238418579,123.60417252779007 C240.97205422859827,123.60417252779007 256.1875238418579,138.5958852349724 256.1875238418579,157.10417252779007 C256.1875238418579,175.61245982060774 240.97205422859827,190.60417252779007 222.1875238418579,190.60417252779007 C203.40299345511755,190.60417252779007 188.1875238418579,175.61245982060774 188.1875238418579,157.10417252779007 z" class="" id="svg_9"/><path fill="#000000" fill-opacity="1" stroke="#000000" stroke-opacity="1" stroke-width="6" stroke-dasharray="none" stroke-linejoin="round" stroke-linecap="butt" stroke-dashoffset="" fill-rule="nonzero" opacity="1" marker-start="" marker-mid="" marker-end="" d="M138.50002545118332,145.81250524520874 C138.50002545118332,143.32631739990487 140.51383760587947,141.31250524520874 143.00002545118332,141.31250524520874 C145.48621329648716,141.31250524520874 147.50002545118332,143.32631739990487 147.50002545118332,145.81250524520874 C147.50002545118332,148.29869309051261 145.48621329648716,150.31250524520874 143.00002545118332,150.31250524520874 C140.51383760587947,150.31250524520874 138.50002545118332,148.29869309051261 138.50002545118332,145.81250524520874 z" id="svg_10" class=""/><path fill="#000000" fill-opacity="1" stroke="#000000" stroke-opacity="1" stroke-width="6" stroke-dasharray="none" stroke-linejoin="round" stroke-linecap="butt" stroke-dashoffset="" fill-rule="nonzero" opacity="1" marker-start="" marker-mid="" marker-end="" d="M234.02085369825363,166.33333855867386 C234.02085369825363,163.84715071336998 236.0346658529498,161.83333855867386 238.52085369825363,161.83333855867386 C241.00704154355748,161.83333855867386 243.02085369825363,163.84715071336998 243.02085369825363,166.33333855867386 C243.02085369825363,168.81952640397773 241.00704154355748,170.83333855867386 238.52085369825363,170.83333855867386 C236.0346658529498,170.83333855867386 234.02085369825363,168.81952640397773 234.02085369825363,166.33333855867386 z" class="" id="svg_4"/><polyline fill="none" stroke="#000000" stroke-width="6" stroke-linejoin="round" stroke-dashoffset="" fill-rule="nonzero" marker-start="" marker-mid="" marker-end="" id="svg_6" points="144.40830993652344,235.29164123535156 144.40830993652344,235.29164123535156 144.40830993652344,235.81248474121094 144.40830993652344,236.85414123535156 144.40830993652344,237.37498474121094 144.40830993652344,237.8957977294922 144.9291534423828,238.41664123535156 145.4499969482422,239.4582977294922 145.4499969482422,239.4582977294922 145.97080993652344,239.97914123535156 145.97080993652344,240.49998474121094 145.97080993652344,241.0207977294922 145.97080993652344,241.54164123535156 146.4916534423828,241.54164123535156 147.0124969482422,242.06248474121094 147.53330993652344,242.5832977294922 147.53330993652344,243.10414123535156 148.0541534423828,243.62498474121094 148.0541534423828,243.62498474121094 148.0541534423828,244.1457977294922 148.5749969482422,245.7082977294922 149.09580993652344,245.7082977294922 149.6166534423828,246.22914123535156 150.1374969482422,246.22914123535156 150.1374969482422,247.2707977294922 150.65830993652344,247.79164123535156 151.1791534423828,248.31248474121094 151.6999969482422,248.31248474121094 151.6999969482422,248.8332977294922 151.6999969482422,249.35414123535156 152.22080993652344,249.35414123535156 152.22080993652344,249.87498474121094 152.22080993652344,249.87498474121094 152.7416534423828,250.3957977294922 153.78330993652344,250.91664123535156 153.78330993652344,251.43748474121094 154.3041534423828,251.9582977294922 154.8249969482422,252.47914123535156 155.8666534423828,252.99998474121094 156.3874969482422,254.04164123535156 156.3874969482422,254.56248474121094 157.4291534423828,255.60414123535156 158.47080993652344,256.12498474121094 158.9916534423828,257.16664123535156 160.5541534423828,258.2082977294922 160.5541534423828,258.72914123535156 162.6374969482422,260.29164123535156 163.6791534423828,260.81248474121094 164.72080993652344,262.37498474121094 165.7624969482422,263.41664123535156 167.3249969482422,264.4582977294922 168.8874969482422,266.0207977294922 169.9291534423828,266.54164123535156 170.97080993652344,267.06248474121094 172.0124969482422,268.10414123535156 173.0541534423828,268.62498474121094 174.09580993652344,269.1457977294922 175.1374969482422,270.18748474121094 176.1791534423828,270.7082977294922 177.22080993652344,271.22914123535156 177.22080993652344,271.74998474121094 178.2624969482422,272.2707977294922 179.3041534423828,272.79164123535156 179.8249969482422,272.79164123535156 180.8666534423828,273.31248474121094 181.3874969482422,273.8332977294922 182.4291534423828,274.35414123535156 183.47080993652344,274.87498474121094 184.5124969482422,274.87498474121094 185.5541534423828,275.91664123535156 186.59580993652344,276.43748474121094 187.6374969482422,276.9582977294922 188.6791534423828,276.9582977294922 189.72080993652344,277.47914123535156 190.7624969482422,277.99998474121094 191.8041534423828,277.99998474121094 192.3249969482422,278.5207977294922 193.3666534423828,279.04164123535156 193.8874969482422,279.04164123535156 194.9291534423828,279.04164123535156 195.97080993652344,279.04164123535156 196.4916534423828,279.56248474121094 197.53330993652344,279.56248474121094 198.5749969482422,280.0832977294922 199.6166534423828,280.0832977294922 200.65830993652344,280.0832977294922 202.22080993652344,280.60414123535156 202.7416534423828,280.60414123535156 203.78330993652344,280.60414123535156 204.8249969482422,280.60414123535156 205.8666534423828,280.60414123535156 206.90830993652344,280.60414123535156 207.9499969482422,280.60414123535156 208.9916534423828,280.60414123535156 210.5541534423828,280.60414123535156 211.59580993652344,280.60414123535156 212.6374969482422,280.60414123535156 213.6791534423828,280.60414123535156 214.72080993652344,280.60414123535156 214.72080993652344,280.60414123535156 216.28330993652344,280.60414123535156 216.8041534423828,280.60414123535156 217.3249969482422,280.60414123535156 218.3666534423828,280.0832977294922 218.8874969482422,280.0832977294922 220.4499969482422,279.56248474121094 220.97080993652344,279.56248474121094 222.0124969482422,279.04164123535156 223.0541534423828,279.04164123535156 224.09580993652344,278.5207977294922 225.1374969482422,278.5207977294922 226.1791534423828,278.5207977294922 227.22080993652344,277.99998474121094 227.7416534423828,277.47914123535156 228.2624969482422,277.47914123535156 228.78330993652344,277.47914123535156 229.3041534423828,276.9582977294922 229.8249969482422,276.9582977294922 230.34580993652344,276.43748474121094 230.8666534423828,276.43748474121094 231.3874969482422,275.91664123535156 231.3874969482422,275.3957977294922 232.4291534423828,274.87498474121094 233.47080993652344,274.87498474121094 233.9916534423828,274.35414123535156 234.5124969482422,273.8332977294922 235.5541534423828,273.31248474121094 236.59580993652344,273.31248474121094 237.6374969482422,272.79164123535156 238.6791534423828,272.79164123535156 239.1999969482422,271.74998474121094 239.72080993652344,271.22914123535156 240.7624969482422,270.7082977294922 241.28330993652344,270.7082977294922 241.8041534423828,270.18748474121094 242.3249969482422,269.66664123535156 242.84580993652344,269.1457977294922 243.3666534423828,268.62498474121094 243.8874969482422,268.62498474121094 243.8874969482422,268.10414123535156 244.40830993652344,267.06248474121094 244.9291534423828,266.54164123535156 245.4499969482422,266.54164123535156 245.97080993652344,266.0207977294922 245.97080993652344,264.97914123535156 246.4916534423828,264.4582977294922 247.0124969482422,264.4582977294922 247.53330993652344,263.41664123535156 248.0541534423828,262.8957977294922 248.5749969482422,262.37498474121094 249.09580993652344,261.85414123535156 249.6166534423828,260.81248474121094 250.1374969482422,260.29164123535156 250.1374969482422,260.29164123535156 250.65830993652344,259.24998474121094 250.65830993652344,258.72914123535156 251.1791534423828,258.2082977294922 251.6999969482422,257.68748474121094 252.22080993652344,256.6457977294922 252.22080993652344,256.12498474121094 252.7416534423828,255.0832977294922 252.7416534423828,254.56248474121094 253.78330993652344,254.04164123535156 253.78330993652344,252.99998474121094 254.3041534423828,252.47914123535156 254.3041534423828,251.9582977294922 254.3041534423828,250.91664123535156 254.8249969482422,249.87498474121094 254.8249969482422,249.87498474121094 254.8249969482422,248.8332977294922 255.34580993652344,247.79164123535156 255.8666534423828,247.79164123535156 255.8666534423828,246.74998474121094 256.3874969482422,245.7082977294922 256.3874969482422,245.7082977294922 256.3874969482422,244.66664123535156 256.3874969482422,244.1457977294922 256.90830993652344,243.62498474121094 256.90830993652344,243.10414123535156 256.90830993652344,242.5832977294922 256.90830993652344,241.54164123535156 257.4291534423828,241.54164123535156 257.4291534423828,240.49998474121094 257.9499969482422,239.97914123535156 257.9499969482422,239.4582977294922 258.47080993652344,238.93748474121094 258.47080993652344,238.41664123535156 258.47080993652344,237.37498474121094 258.47080993652344,236.85414123535156 258.47080993652344,236.3332977294922 258.47080993652344,235.29164123535156 258.47080993652344,234.7707977294922 258.47080993652344,233.72914123535156 258.9916534423828,233.2082977294922 258.9916534423828,232.68748474121094 258.9916534423828,231.12498474121094 258.9916534423828,230.60414123535156 258.9916534423828,230.0832977294922 258.9916534423828,229.04164123535156 258.9916534423828,228.5207977294922 258.9916534423828,227.47914123535156 259.5124969482422,226.43748474121094 259.5124969482422,225.91664123535156 259.5124969482422,224.87498474121094 259.5124969482422,224.35414123535156 259.5124969482422,223.8332977294922 259.5124969482422,222.79164123535156 260.03330993652344,222.79164123535156 260.03330993652344,222.2707977294922 260.03330993652344,221.22914123535156 260.03330993652344,220.7082977294922 260.5541534423828,220.18748474121094 260.5541534423828,219.66664123535156 260.5541534423828,219.1457977294922 260.5541534423828,218.62498474121094 260.5541534423828,218.62498474121094 260.5541534423828,218.10414123535156 260.5541534423828,217.5832977294922 260.5541534423828,217.06248474121094 260.5541534423828,216.54164123535156 260.5541534423828,216.54164123535156 260.5541534423828,216.54164123535156 260.5541534423828,216.0207977294922 260.5541534423828,215.49998474121094 260.5541534423828,214.97914123535156 261.0749969482422,214.97914123535156 261.0749969482422,214.4582977294922 261.0749969482422,214.4582977294922 261.0749969482422,213.93748474121094 261.0749969482422,213.41664123535156 261.0749969482422,212.8957977294922 " style="color: rgb(252, 235, 199);" class=""/><polyline fill="none" stroke="#000000" stroke-width="6" stroke-linejoin="round" stroke-dashoffset="" fill-rule="nonzero" marker-start="" marker-mid="" marker-end="" id="svg_7" points="27.741668701171875,121.74998474121094 28.262496948242188,121.74998474121094 28.7833251953125,122.27081298828125 28.7833251953125,122.79164123535156 29.304168701171875,122.79164123535156 29.824996948242188,123.31248474121094 30.3458251953125,123.83331298828125 31.387496948242188,124.35414123535156 31.387496948242188,124.87498474121094 31.387496948242188,125.39581298828125 32.429168701171875,125.39581298828125 32.94999694824219,125.91664123535156 33.4708251953125,126.95831298828125 33.4708251953125,126.95831298828125 33.991668701171875,127.47914123535156 35.0333251953125,127.47914123535156 35.0333251953125,127.99998474121094 35.554168701171875,128.52081298828125 35.554168701171875,129.04164123535156 36.07499694824219,129.04164123535156 36.5958251953125,129.04164123535156 37.116668701171875,129.04164123535156 37.116668701171875,129.56248474121094 37.63749694824219,129.56248474121094 38.1583251953125,130.08331298828125 38.679168701171875,130.60414123535156 39.19999694824219,131.12498474121094 39.7208251953125,131.12498474121094 40.241668701171875,131.12498474121094 41.2833251953125,131.12498474121094 41.2833251953125,131.64581298828125 41.804168701171875,131.64581298828125 41.804168701171875,132.16664123535156 42.32499694824219,132.16664123535156 42.32499694824219,132.68748474121094 42.8458251953125,132.68748474121094 43.366668701171875,133.20831298828125 43.88749694824219,133.20831298828125 43.88749694824219,133.72914123535156 44.40834045410156,133.72914123535156 44.92915344238281,134.24998474121094 45.44999694824219,134.77081298828125 45.97084045410156,134.77081298828125 45.97084045410156,135.29164123535156 46.49165344238281,135.29164123535156 46.49165344238281,135.29164123535156 47.01249694824219,135.29164123535156 47.01249694824219,135.81248474121094 47.53334045410156,135.81248474121094 48.05415344238281,135.81248474121094 " style="color: rgb(252, 235, 199);" class=""/><polyline fill="none" stroke="#000000" stroke-width="6" stroke-linejoin="round" stroke-dashoffset="" fill-rule="nonzero" marker-start="" marker-mid="" marker-end="" id="svg_8" points="42.8458251953125,92.16665649414062 43.366668701171875,92.16665649414062 43.366668701171875,92.68748474121094 43.88749694824219,92.68748474121094 43.88749694824219,93.20832824707031 43.88749694824219,93.20832824707031 44.40834045410156,93.72915649414062 44.92915344238281,94.24998474121094 45.44999694824219,94.24998474121094 45.44999694824219,94.77082824707031 45.97084045410156,94.77082824707031 45.97084045410156,95.29165649414062 46.49165344238281,95.81248474121094 47.01249694824219,95.81248474121094 47.53334045410156,96.33332824707031 47.53334045410156,96.85415649414062 48.05415344238281,96.85415649414062 48.57499694824219,97.37498474121094 48.57499694824219,97.37498474121094 49.09584045410156,97.89582824707031 49.61665344238281,97.89582824707031 49.61665344238281,98.41665649414062 50.13749694824219,98.41665649414062 50.13749694824219,98.93748474121094 50.65834045410156,98.93748474121094 51.17915344238281,99.45832824707031 51.69999694824219,99.45832824707031 52.22084045410156,99.97915649414062 52.22084045410156,99.97915649414062 52.22084045410156,101.02082824707031 52.74165344238281,101.02082824707031 53.78334045410156,101.02082824707031 53.78334045410156,101.54165649414062 54.30415344238281,102.06248474121094 54.30415344238281,102.58332824707031 54.82499694824219,103.10415649414062 55.34584045410156,103.10415649414062 55.86665344238281,103.62498474121094 56.38749694824219,104.14582824707031 56.38749694824219,104.66665649414062 56.90834045410156,105.18748474121094 57.42915344238281,105.18748474121094 57.94999694824219,105.70832824707031 57.94999694824219,105.70832824707031 58.47084045410156,105.70832824707031 58.47084045410156,106.22915649414062 58.47084045410156,106.74998474121094 58.47084045410156,107.27082824707031 58.99165344238281,107.27082824707031 59.51249694824219,107.79165649414062 60.03334045410156,107.79165649414062 60.55415344238281,108.83332824707031 60.55415344238281,108.83332824707031 60.55415344238281,109.35415649414062 61.07499694824219,109.35415649414062 61.07499694824219,109.87498474121094 61.59584045410156,109.87498474121094 " style="color: rgb(252, 235, 199);" class=""/><polyline fill="none" stroke="#000000" stroke-width="6" stroke-linejoin="round" stroke-dashoffset="" fill-rule="nonzero" marker-start="" marker-mid="" marker-end="" id="svg_11" points="66.28334045410156,68.20832824707031 66.28334045410156,68.72915649414062 66.28334045410156,69.24999237060547 66.80415344238281,69.24999237060547 66.80415344238281,70.29165649414062 66.80415344238281,70.29165649414062 66.80415344238281,70.81249237060547 67.32499694824219,71.33332061767578 67.84584045410156,71.85415649414062 67.84584045410156,72.37499237060547 67.84584045410156,72.37499237060547 68.36665344238281,73.41665649414062 68.88749694824219,73.41665649414062 68.88749694824219,74.45832061767578 69.40834045410156,74.45832061767578 69.40834045410156,74.97915649414062 69.92915344238281,75.49999237060547 69.92915344238281,76.02082824707031 70.44999694824219,76.54165649414062 70.97084045410156,76.54165649414062 70.97084045410156,76.54165649414062 70.97084045410156,77.06248474121094 70.97084045410156,77.58332824707031 71.49165344238281,78.10415649414062 72.01249694824219,78.62498474121094 72.01249694824219,78.62498474121094 72.53334045410156,79.14582824707031 73.05415344238281,79.66665649414062 73.05415344238281,80.18748474121094 73.05415344238281,80.70832824707031 73.57499694824219,80.70832824707031 73.57499694824219,81.22915649414062 74.09584045410156,81.22915649414062 74.09584045410156,81.74998474121094 74.61665344238281,82.27082824707031 74.61665344238281,82.79165649414062 75.13749694824219,82.79165649414062 75.13749694824219,82.79165649414062 75.13749694824219,82.79165649414062 75.13749694824219,83.31248474121094 75.65834045410156,83.31248474121094 75.65834045410156,83.83332824707031 76.17915344238281,83.83332824707031 76.17915344238281,84.35415649414062 76.17915344238281,84.87498474121094 " style="color: rgb(252, 235, 199);" class=""/><polyline fill="none" stroke="#000000" stroke-width="6" stroke-linejoin="round" stroke-dashoffset="" fill-rule="nonzero" marker-start="" marker-mid="" marker-end="" id="svg_12" points="92.32499694824219,47.37499237060547 92.32499694824219,47.37499237060547 92.84584045410156,47.37499237060547 92.84584045410156,47.89582824707031 92.84584045410156,48.416656494140625 93.36665344238281,48.93749237060547 93.88749694824219,49.45832824707031 93.88749694824219,49.45832824707031 93.88749694824219,49.979156494140625 93.88749694824219,50.49999237060547 94.40834045410156,50.49999237060547 94.40834045410156,51.541656494140625 94.40834045410156,51.541656494140625 94.92915344238281,52.06249237060547 95.44999694824219,52.58332824707031 95.97084045410156,52.58332824707031 95.97084045410156,53.104156494140625 95.97084045410156,53.62499237060547 95.97084045410156,53.62499237060547 95.97084045410156,53.62499237060547 96.49165344238281,54.14582824707031 96.49165344238281,54.666656494140625 96.49165344238281,55.18749237060547 97.01249694824219,55.70832824707031 97.53334045410156,55.70832824707031 98.05415344238281,56.229156494140625 98.05415344238281,56.74999237060547 98.05415344238281,57.27082824707031 98.57499694824219,57.791656494140625 98.57499694824219,57.791656494140625 98.57499694824219,58.31249237060547 98.57499694824219,58.83332824707031 99.09580993652344,58.83332824707031 99.61665344238281,59.354156494140625 99.61665344238281,59.87499237060547 100.13749694824219,59.87499237060547 100.13749694824219,60.39582824707031 100.13749694824219,60.916656494140625 100.13749694824219,60.916656494140625 100.13749694824219,61.43749237060547 100.13749694824219,61.95832824707031 100.65830993652344,61.95832824707031 100.65830993652344,61.95832824707031 100.65830993652344,62.479156494140625 " style="color: rgb(252, 235, 199);" class=""/><polyline fill="none" stroke="#000000" stroke-width="6" stroke-linejoin="round" stroke-dashoffset="" fill-rule="nonzero" marker-start="" marker-mid="" marker-end="" id="svg_13" points="125.13749694824219,30.18749237060547 125.13749694824219,30.708328247070312 125.13749694824219,30.708328247070312 125.65830993652344,31.229156494140625 125.65830993652344,32.27082824707031 126.17915344238281,32.27082824707031 126.17915344238281,32.791656494140625 126.69999694824219,32.791656494140625 126.69999694824219,33.31249237060547 126.69999694824219,33.83332824707031 126.69999694824219,34.354156494140625 127.22080993652344,34.87499237060547 127.22080993652344,35.39582824707031 127.22080993652344,35.916656494140625 127.22080993652344,36.43749237060547 127.22080993652344,36.95832824707031 127.22080993652344,36.95832824707031 127.74165344238281,36.95832824707031 127.74165344238281,37.479156494140625 128.2624969482422,37.99999237060547 128.2624969482422,38.52082824707031 128.78330993652344,38.52082824707031 128.78330993652344,39.041656494140625 128.78330993652344,39.041656494140625 128.78330993652344,39.56249237060547 129.3041534423828,39.56249237060547 129.3041534423828,40.08332824707031 129.3041534423828,40.604156494140625 129.3041534423828,41.12499237060547 129.3041534423828,41.12499237060547 129.8249969482422,41.12499237060547 129.8249969482422,41.64582824707031 129.8249969482422,42.166656494140625 130.34580993652344,42.166656494140625 130.34580993652344,42.68749237060547 130.8666534423828,42.68749237060547 130.8666534423828,43.20832824707031 130.8666534423828,43.20832824707031 130.8666534423828,43.729156494140625 131.3874969482422,44.24999237060547 131.3874969482422,44.77082824707031 131.3874969482422,44.77082824707031 131.3874969482422,45.291656494140625 131.3874969482422,45.291656494140625 131.3874969482422,45.81249237060547 131.3874969482422,46.33332824707031 " style="color: rgb(252, 235, 199);" class=""/><polyline fill="none" stroke="#000000" stroke-width="6" stroke-linejoin="round" stroke-dashoffset="" fill-rule="nonzero" marker-start="" marker-mid="" marker-end="" id="svg_14" points="157.9499969482422,16.12499237060547 157.9499969482422,16.645828247070312 157.9499969482422,17.166664123535156 157.9499969482422,17.68749237060547 157.9499969482422,18.208328247070312 157.9499969482422,18.208328247070312 157.9499969482422,18.729164123535156 157.9499969482422,19.770828247070312 157.9499969482422,20.291664123535156 157.9499969482422,20.81249237060547 157.9499969482422,21.854164123535156 157.9499969482422,22.37499237060547 157.9499969482422,22.895828247070312 157.9499969482422,23.416656494140625 157.9499969482422,23.93749237060547 157.9499969482422,24.458328247070312 157.9499969482422,24.458328247070312 158.47080993652344,24.979156494140625 158.47080993652344,25.49999237060547 158.47080993652344,26.020828247070312 158.47080993652344,26.541656494140625 158.47080993652344,26.541656494140625 158.47080993652344,27.06249237060547 158.47080993652344,27.583328247070312 158.47080993652344,28.104156494140625 158.47080993652344,28.62499237060547 158.47080993652344,28.62499237060547 158.47080993652344,29.145828247070312 158.47080993652344,29.666656494140625 158.47080993652344,30.18749237060547 158.47080993652344,30.708328247070312 158.47080993652344,30.708328247070312 158.47080993652344,30.708328247070312 158.47080993652344,31.229156494140625 158.47080993652344,31.74999237060547 158.47080993652344,32.27082824707031 158.47080993652344,32.791656494140625 158.47080993652344,32.791656494140625 158.47080993652344,33.31249237060547 158.9916534423828,33.31249237060547 158.9916534423828,33.83332824707031 158.9916534423828,34.354156494140625 158.9916534423828,34.87499237060547 158.9916534423828,34.87499237060547 158.9916534423828,35.39582824707031 158.9916534423828,36.43749237060547 158.9916534423828,36.95832824707031 158.9916534423828,36.95832824707031 158.9916534423828,37.479156494140625 " style="color: rgb(252, 235, 199);" class=""/><polyline fill="none" stroke="#000000" stroke-width="6" stroke-linejoin="round" stroke-dashoffset="" fill-rule="nonzero" marker-start="" marker-mid="" marker-end="" id="svg_15" points="187.6374969482422,10.91666030883789 187.6374969482422,11.437496185302734 187.6374969482422,11.958328247070312 187.6374969482422,12.479164123535156 187.6374969482422,13.520828247070312 187.6374969482422,14.041664123535156 187.6374969482422,14.041664123535156 187.6374969482422,14.562492370605469 187.6374969482422,15.604164123535156 187.6374969482422,16.12499237060547 187.6374969482422,16.645828247070312 187.6374969482422,17.68749237060547 187.6374969482422,18.208328247070312 187.6374969482422,18.729164123535156 187.6374969482422,19.24999237060547 187.6374969482422,20.291664123535156 187.6374969482422,20.291664123535156 187.6374969482422,21.333328247070312 187.6374969482422,21.854164123535156 187.6374969482422,22.37499237060547 187.6374969482422,22.37499237060547 187.6374969482422,22.895828247070312 187.6374969482422,23.416656494140625 187.6374969482422,23.93749237060547 187.6374969482422,24.458328247070312 187.6374969482422,24.458328247070312 187.6374969482422,24.979156494140625 187.6374969482422,25.49999237060547 187.6374969482422,26.020828247070312 187.6374969482422,26.541656494140625 187.6374969482422,27.06249237060547 187.6374969482422,27.583328247070312 187.6374969482422,28.104156494140625 187.6374969482422,28.62499237060547 187.6374969482422,29.145828247070312 187.6374969482422,29.666656494140625 187.6374969482422,30.18749237060547 187.6374969482422,30.708328247070312 187.6374969482422,30.708328247070312 187.6374969482422,31.229156494140625 187.6374969482422,31.74999237060547 187.6374969482422,32.27082824707031 187.6374969482422,32.791656494140625 187.6374969482422,32.791656494140625 187.6374969482422,33.31249237060547 187.6374969482422,33.83332824707031 187.6374969482422,34.354156494140625 187.6374969482422,34.87499237060547 " style="color: rgb(252, 235, 199);" class=""/><polyline fill="none" stroke="#000000" stroke-width="6" stroke-linejoin="round" stroke-dashoffset="" fill-rule="nonzero" marker-start="" marker-mid="" marker-end="" id="svg_16" points="221.4916534423828,15.083328247070312 220.97080993652344,15.083328247070312 220.97080993652344,15.604164123535156 220.4499969482422,16.12499237060547 219.40830993652344,16.12499237060547 218.8874969482422,16.645828247070312 218.8874969482422,17.166664123535156 218.8874969482422,17.68749237060547 218.3666534423828,18.208328247070312 218.3666534423828,18.729164123535156 217.84580993652344,18.729164123535156 217.84580993652344,19.24999237060547 217.84580993652344,19.770828247070312 217.3249969482422,20.291664123535156 216.8041534423828,20.291664123535156 216.8041534423828,20.81249237060547 216.8041534423828,21.333328247070312 216.28330993652344,22.37499237060547 216.28330993652344,22.37499237060547 216.28330993652344,22.895828247070312 216.28330993652344,23.416656494140625 215.7624969482422,23.93749237060547 215.7624969482422,24.458328247070312 215.2416534423828,24.979156494140625 215.2416534423828,26.020828247070312 214.72080993652344,26.020828247070312 214.72080993652344,26.541656494140625 214.72080993652344,27.06249237060547 214.72080993652344,27.583328247070312 214.72080993652344,28.104156494140625 214.72080993652344,28.62499237060547 214.1999969482422,29.145828247070312 214.1999969482422,30.18749237060547 213.6791534423828,30.18749237060547 213.6791534423828,30.708328247070312 213.15830993652344,31.229156494140625 213.15830993652344,32.27082824707031 212.6374969482422,32.27082824707031 212.6374969482422,32.791656494140625 212.6374969482422,33.31249237060547 212.6374969482422,33.83332824707031 212.6374969482422,34.354156494140625 212.6374969482422,34.87499237060547 212.6374969482422,34.87499237060547 212.6374969482422,35.39582824707031 212.6374969482422,35.916656494140625 212.1166534423828,36.43749237060547 212.1166534423828,36.95832824707031 212.1166534423828,36.95832824707031 212.1166534423828,37.479156494140625 212.1166534423828,37.99999237060547 212.1166534423828,38.52082824707031 " style="color: rgb(252, 235, 199);" class=""/><polyline fill="none" stroke="#000000" stroke-width="6" stroke-linejoin="round" stroke-dashoffset="" fill-rule="nonzero" marker-start="" marker-mid="" marker-end="" id="svg_17" points="253.78330993652344,24.458328247070312 254.3041534423828,24.979156494140625 254.3041534423828,25.49999237060547 254.3041534423828,26.020828247070312 254.3041534423828,26.541656494140625 254.3041534423828,27.06249237060547 254.3041534423828,28.104156494140625 254.3041534423828,28.62499237060547 254.3041534423828,28.62499237060547 254.3041534423828,29.145828247070312 254.3041534423828,29.666656494140625 253.78330993652344,30.18749237060547 253.78330993652344,30.708328247070312 253.2624969482422,31.229156494140625 252.7416534423828,31.74999237060547 252.7416534423828,32.27082824707031 252.22080993652344,32.791656494140625 252.22080993652344,33.31249237060547 252.22080993652344,33.83332824707031 252.22080993652344,34.354156494140625 251.6999969482422,34.354156494140625 251.1791534423828,34.87499237060547 251.1791534423828,34.87499237060547 251.1791534423828,35.39582824707031 251.1791534423828,35.916656494140625 250.65830993652344,35.916656494140625 250.65830993652344,36.43749237060547 250.1374969482422,36.43749237060547 250.1374969482422,36.95832824707031 250.1374969482422,36.95832824707031 250.1374969482422,36.95832824707031 250.1374969482422,37.479156494140625 250.1374969482422,37.99999237060547 250.1374969482422,38.52082824707031 249.6166534423828,38.52082824707031 249.6166534423828,39.041656494140625 249.6166534423828,39.041656494140625 249.09580993652344,39.56249237060547 249.09580993652344,40.08332824707031 249.09580993652344,40.604156494140625 249.09580993652344,41.12499237060547 248.5749969482422,41.12499237060547 248.5749969482422,41.64582824707031 248.5749969482422,42.166656494140625 248.5749969482422,42.68749237060547 248.0541534423828,42.68749237060547 248.0541534423828,43.20832824707031 248.0541534423828,43.20832824707031 248.0541534423828,43.729156494140625 248.0541534423828,43.729156494140625 248.0541534423828,44.24999237060547 248.0541534423828,44.77082824707031 248.0541534423828,45.291656494140625 248.0541534423828,45.291656494140625 247.53330993652344,45.291656494140625 247.53330993652344,45.81249237060547 247.53330993652344,46.33332824707031 247.53330993652344,46.854156494140625 247.53330993652344,47.37499237060547 " style="color: rgb(252, 235, 199);" class=""/><polyline fill="none" stroke="#000000" stroke-width="6" stroke-linejoin="round" stroke-dashoffset="" fill-rule="nonzero" marker-start="" marker-mid="" marker-end="" id="svg_18" points="279.3041534423828,39.041656494140625 279.3041534423828,39.56249237060547 278.78330993652344,39.56249237060547 278.78330993652344,40.08332824707031 278.78330993652344,40.604156494140625 277.7416534423828,40.604156494140625 277.7416534423828,41.12499237060547 277.7416534423828,41.12499237060547 277.22080993652344,41.12499237060547 277.22080993652344,41.64582824707031 276.6999969482422,42.166656494140625 276.6999969482422,42.68749237060547 276.1791534423828,42.68749237060547 275.65830993652344,43.20832824707031 275.1374969482422,43.20832824707031 275.1374969482422,44.24999237060547 274.6166534423828,44.24999237060547 274.6166534423828,44.77082824707031 274.09580993652344,45.291656494140625 273.5749969482422,45.291656494140625 273.0541534423828,45.81249237060547 273.0541534423828,46.33332824707031 273.0541534423828,46.854156494140625 272.53330993652344,46.854156494140625 272.53330993652344,47.37499237060547 272.53330993652344,47.37499237060547 272.0124969482422,47.37499237060547 272.0124969482422,47.89582824707031 271.4916534423828,48.416656494140625 271.4916534423828,48.93749237060547 270.97080993652344,49.45832824707031 270.97080993652344,49.45832824707031 270.97080993652344,49.45832824707031 270.97080993652344,49.979156494140625 270.97080993652344,50.49999237060547 270.4499969482422,50.49999237060547 270.4499969482422,51.02082824707031 270.4499969482422,51.541656494140625 270.4499969482422,51.541656494140625 269.9291534423828,52.06249237060547 269.9291534423828,52.58332824707031 269.40830993652344,52.58332824707031 269.40830993652344,53.104156494140625 269.40830993652344,53.62499237060547 268.8874969482422,53.62499237060547 268.8874969482422,54.14582824707031 268.8874969482422,54.14582824707031 268.8874969482422,54.666656494140625 268.8874969482422,55.18749237060547 268.3666534423828,55.18749237060547 268.3666534423828,55.70832824707031 268.3666534423828,55.70832824707031 267.84580993652344,56.229156494140625 267.84580993652344,56.74999237060547 267.3249969482422,56.74999237060547 267.3249969482422,57.27082824707031 267.3249969482422,57.791656494140625 267.3249969482422,57.791656494140625 266.8041534423828,57.791656494140625 266.8041534423828,58.31249237060547 266.8041534423828,58.31249237060547 266.8041534423828,58.83332824707031 266.28330993652344,58.83332824707031 266.28330993652344,59.354156494140625 266.28330993652344,59.87499237060547 " style="color: rgb(252, 235, 199);" class=""/><polyline fill="none" stroke="#000000" stroke-width="6" stroke-linejoin="round" stroke-dashoffset="" fill-rule="nonzero" marker-start="" marker-mid="" marker-end="" id="svg_19" points="300.65830993652344,53.62499237060547 300.65830993652344,54.14582824707031 300.65830993652344,54.666656494140625 300.65830993652344,55.18749237060547 300.65830993652344,55.70832824707031 300.65830993652344,55.70832824707031 300.1374969482422,56.229156494140625 300.1374969482422,56.74999237060547 300.1374969482422,56.74999237060547 299.6166534423828,57.27082824707031 299.6166534423828,57.791656494140625 299.09580993652344,57.791656494140625 299.09580993652344,58.31249237060547 298.0541534423828,58.83332824707031 298.0541534423828,59.354156494140625 298.0541534423828,59.87499237060547 297.53330993652344,59.87499237060547 297.01246643066406,60.916656494140625 295.97080993652344,61.43749237060547 295.97080993652344,61.95832824707031 295.97080993652344,61.95832824707031 295.97080993652344,61.95832824707031 295.44996643066406,62.479156494140625 295.44996643066406,62.99999237060547 294.9291534423828,62.99999237060547 294.9291534423828,63.52082824707031 294.40830993652344,64.04165649414062 293.88746643066406,64.04165649414062 293.88746643066406,64.04165649414062 293.88746643066406,64.56249237060547 293.88746643066406,65.08332824707031 293.88746643066406,65.08332824707031 293.88746643066406,65.60415649414062 293.3666534423828,66.12499237060547 292.84580993652344,66.12499237060547 292.84580993652344,66.64582824707031 292.84580993652344,67.16665649414062 292.32496643066406,67.68749237060547 291.8041534423828,68.20832824707031 291.8041534423828,68.20832824707031 291.8041534423828,68.72915649414062 291.8041534423828,69.24999237060547 291.28330993652344,69.24999237060547 291.28330993652344,69.77082824707031 291.28330993652344,70.29165649414062 290.76246643066406,70.29165649414062 290.76246643066406,70.81249237060547 290.2416534423828,71.33332061767578 289.72080993652344,71.33332061767578 289.72080993652344,71.85415649414062 289.72080993652344,72.37499237060547 289.72080993652344,72.37499237060547 289.72080993652344,72.37499237060547 289.72080993652344,72.89582061767578 289.19996643066406,73.41665649414062 289.19996643066406,73.93749237060547 289.19996643066406,74.45832061767578 288.6791534423828,74.45832061767578 288.15830993652344,74.45832061767578 288.15830993652344,74.97915649414062 " style="color: rgb(252, 235, 199);" class=""/><polyline fill="none" stroke="#000000" stroke-width="6" stroke-linejoin="round" stroke-dashoffset="" fill-rule="nonzero" marker-start="" marker-mid="" marker-end="" id="svg_20" points="325.1374969482422,79.14582824707031 325.1374969482422,79.66665649414062 325.1374969482422,79.66665649414062 325.1374969482422,80.18748474121094 324.6166229248047,80.18748474121094 324.09580993652344,80.18748474121094 323.5749969482422,80.70832824707031 323.0541229248047,80.70832824707031 323.0541229248047,81.22915649414062 322.53330993652344,81.22915649414062 322.0124969482422,81.74998474121094 321.4916229248047,82.27082824707031 320.97080993652344,82.79165649414062 320.97080993652344,82.79165649414062 320.4499969482422,82.79165649414062 319.9291229248047,83.31248474121094 319.40830993652344,83.31248474121094 318.8874969482422,83.83332824707031 318.8874969482422,84.35415649414062 317.84580993652344,84.87498474121094 317.3249969482422,84.87498474121094 316.8041229248047,85.39582824707031 316.8041229248047,85.39582824707031 316.8041229248047,85.91665649414062 316.28330993652344,85.91665649414062 315.7624969482422,86.43748474121094 315.2416229248047,86.95832824707031 314.72080993652344,86.95832824707031 314.72080993652344,86.95832824707031 314.1999969482422,87.47915649414062 313.6791229248047,87.47915649414062 313.15830993652344,87.99998474121094 312.6374969482422,88.52082824707031 312.1166229248047,89.04165649414062 311.59580993652344,89.04165649414062 311.0749969482422,89.04165649414062 310.5541229248047,89.04165649414062 310.5541229248047,89.56248474121094 310.5541229248047,89.56248474121094 310.5541229248047,90.08332824707031 310.03330993652344,90.60415649414062 309.5124969482422,90.60415649414062 309.5124969482422,91.12498474121094 308.9916229248047,91.12498474121094 308.47080993652344,91.12498474121094 308.47080993652344,91.64582824707031 308.47080993652344,91.64582824707031 308.47080993652344,92.16665649414062 307.9499969482422,92.16665649414062 307.9499969482422,92.68748474121094 307.4291229248047,92.68748474121094 307.4291229248047,93.20832824707031 306.90830993652344,93.20832824707031 306.90830993652344,93.20832824707031 306.3874969482422,93.20832824707031 306.3874969482422,93.72915649414062 306.3874969482422,93.72915649414062 " style="color: rgb(252, 235, 199);" class=""/><polyline fill="none" stroke="#000000" stroke-width="6" stroke-linejoin="round" stroke-dashoffset="" fill-rule="nonzero" marker-start="" marker-mid="" marker-end="" id="svg_21" points="335.5541229248047,103.10415649414062 335.5541229248047,103.62498474121094 335.5541229248047,103.62498474121094 335.5541229248047,103.62498474121094 335.03330993652344,103.62498474121094 335.03330993652344,104.14582824707031 334.5124969482422,104.14582824707031 333.9916229248047,104.66665649414062 333.9916229248047,105.18748474121094 333.47080993652344,105.18748474121094 333.47080993652344,105.18748474121094 332.9499969482422,105.70832824707031 332.4291229248047,105.70832824707031 331.90830993652344,105.70832824707031 331.90830993652344,105.70832824707031 331.3874969482422,105.70832824707031 331.3874969482422,105.70832824707031 330.34580993652344,106.22915649414062 329.8249969482422,106.74998474121094 329.8249969482422,107.27082824707031 329.3041229248047,107.27082824707031 329.3041229248047,107.79165649414062 328.2624969482422,107.79165649414062 327.7416229248047,107.79165649414062 327.22080993652344,108.31248474121094 327.22080993652344,108.31248474121094 326.6999969482422,108.83332824707031 326.1791229248047,109.35415649414062 325.65830993652344,109.35415649414062 325.1374969482422,109.35415649414062 325.1374969482422,109.87498474121094 325.1374969482422,109.87498474121094 324.09580993652344,109.87498474121094 323.5749969482422,110.39582824707031 323.0541229248047,110.91665649414062 323.0541229248047,110.91665649414062 323.0541229248047,111.43748474121094 322.53330993652344,111.43748474121094 322.0124969482422,111.43748474121094 322.0124969482422,111.95832824707031 322.0124969482422,111.95832824707031 321.4916229248047,111.95832824707031 320.97080993652344,111.95832824707031 320.97080993652344,111.95832824707031 320.97080993652344,112.47915649414062 320.4499969482422,112.47915649414062 320.4499969482422,112.99998474121094 319.9291229248047,112.99998474121094 319.9291229248047,113.52082824707031 319.40830993652344,113.52082824707031 " style="color: rgb(252, 235, 199);" class=""/><polyline fill="none" stroke="#000000" stroke-width="6" stroke-linejoin="round" stroke-dashoffset="" fill-rule="nonzero" marker-start="" marker-mid="" marker-end="" id="svg_22" points="351.6999969482422,129.66665649414062 351.1791229248047,129.66665649414062 350.65830993652344,130.18748474121094 350.1374969482422,130.7083282470703 350.1374969482422,130.7083282470703 349.6166229248047,130.7083282470703 348.5749969482422,130.7083282470703 348.0541229248047,130.7083282470703 348.0541229248047,130.7083282470703 347.53330993652344,131.22915649414062 347.0124969482422,131.22915649414062 346.4916229248047,131.22915649414062 345.97080993652344,131.74998474121094 344.9291229248047,131.74998474121094 344.40830993652344,131.74998474121094 343.8874969482422,131.74998474121094 343.8874969482422,131.74998474121094 342.84580993652344,131.74998474121094 342.3249969482422,131.74998474121094 341.8041229248047,132.2708282470703 340.7624969482422,132.2708282470703 340.2416229248047,132.2708282470703 339.72080993652344,132.2708282470703 338.6791229248047,132.79165649414062 338.15830993652344,132.79165649414062 337.6374969482422,132.79165649414062 336.59580993652344,132.79165649414062 336.0749969482422,132.79165649414062 335.5541229248047,132.79165649414062 335.5541229248047,132.79165649414062 335.5541229248047,133.31248474121094 335.03330993652344,133.31248474121094 334.5124969482422,133.31248474121094 333.9916229248047,133.31248474121094 333.47080993652344,133.31248474121094 333.47080993652344,133.8333282470703 333.47080993652344,133.8333282470703 332.9499969482422,133.8333282470703 332.4291229248047,133.8333282470703 331.90830993652344,133.8333282470703 331.3874969482422,133.8333282470703 331.3874969482422,134.35415649414062 331.3874969482422,134.35415649414062 331.3874969482422,134.87498474121094 330.8666229248047,134.87498474121094 330.34580993652344,134.87498474121094 330.34580993652344,134.87498474121094 " style="color: rgb(252, 235, 199);" class=""/><polyline fill="none" stroke="#000000" stroke-width="6" stroke-linejoin="round" stroke-dashoffset="" fill-rule="nonzero" marker-start="" marker-mid="" marker-end="" id="svg_23" points="25.6583251953125,148.93748474121094 26.179168701171875,149.45831298828125 26.699996948242188,149.45831298828125 27.2208251953125,149.45831298828125 27.2208251953125,149.45831298828125 27.741668701171875,149.45831298828125 28.7833251953125,149.45831298828125 29.304168701171875,149.45831298828125 29.824996948242188,149.45831298828125 30.3458251953125,149.45831298828125 30.866668701171875,149.45831298828125 31.387496948242188,149.45831298828125 31.9083251953125,149.45831298828125 32.429168701171875,149.45831298828125 32.94999694824219,149.45831298828125 33.4708251953125,149.45831298828125 33.991668701171875,149.45831298828125 34.51249694824219,149.45831298828125 35.0333251953125,149.45831298828125 35.554168701171875,149.45831298828125 36.07499694824219,149.45831298828125 36.5958251953125,149.45831298828125 37.116668701171875,149.45831298828125 37.63749694824219,149.45831298828125 37.63749694824219,149.97915649414062 38.1583251953125,149.97915649414062 38.679168701171875,149.97915649414062 39.19999694824219,149.97915649414062 39.7208251953125,150.49998474121094 40.241668701171875,150.49998474121094 40.76249694824219,150.49998474121094 41.2833251953125,150.49998474121094 41.804168701171875,150.49998474121094 41.804168701171875,151.02081298828125 42.32499694824219,151.02081298828125 42.8458251953125,151.02081298828125 43.366668701171875,151.02081298828125 43.88749694824219,151.54165649414062 43.88749694824219,151.54165649414062 44.40834045410156,151.54165649414062 44.92915344238281,151.54165649414062 45.44999694824219,151.54165649414062 45.97084045410156,151.54165649414062 45.97084045410156,151.54165649414062 46.49165344238281,151.54165649414062 47.01249694824219,151.54165649414062 47.53334045410156,151.54165649414062 " style="color: rgb(252, 235, 199);" class=""/></g></svg>